{"asset":{"version":"2.0","generator":"NVMatrixEngine NOCTURNE scene builder"},"extensionsUsed":["KHR_materials_emissive_strength"],"scene":0,"scenes":[{"name":"NOCTURNE / After the rain","nodes":[1,3,5,7,9,11,15,19,24,29,35,37,39,41,43,45,47,51,55,59,60,61,62,63,64,65,66,67,68,69,70,71,72,73,74,75,76,77]}],"buffers":[{"uri":"architecture.bin","byteLength":1100880},{"byteLength":142552,"uri":"sources/utility_box_01/utility_box_01.bin"},{"byteLength":378288,"uri":"sources/metal_trash_can/metal_trash_can.bin"},{"byteLength":1928772,"uri":"sources/fire_hydrant/fire_hydrant.bin"},{"byteLength":494784,"uri":"sources/exterior_aircon_unit/exterior_aircon_unit.bin"},{"byteLength":456856,"uri":"sources/outdoor_table_chair_set_01/outdoor_table_chair_set_01.bin"},{"byteLength":106316,"uri":"sources/trashbag/trashbag.bin"},{"byteLength":189408,"uri":"sources/wooden_crate_01/wooden_crate_01.bin"}],"bufferViews":[{"buffer":1,"byteLength":43548,"byteOffset":0,"target":34962},{"buffer":1,"byteLength":43548,"byteOffset":43548,"target":34962},{"buffer":1,"byteLength":29032,"byteOffset":87096,"target":34962},{"buffer":1,"byteLength":26424,"byteOffset":116128,"target":34963},{"buffer":2,"byteLength":2916,"byteOffset":0,"target":34962},{"buffer":2,"byteLength":2916,"byteOffset":2916,"target":34962},{"buffer":2,"byteLength":1944,"byteOffset":5832,"target":34962},{"buffer":2,"byteLength":2496,"byteOffset":7776,"target":34963},{"buffer":2,"byteLength":11868,"byteOffset":10272,"target":34962},{"buffer":2,"byteLength":11868,"byteOffset":22140,"target":34962},{"buffer":2,"byteLength":7912,"byteOffset":34008,"target":34962},{"buffer":2,"byteLength":9288,"byteOffset":41920,"target":34963},{"buffer":2,"byteLength":34596,"byteOffset":51208,"target":34962},{"buffer":2,"byteLength":34596,"byteOffset":85804,"target":34962},{"buffer":2,"byteLength":23064,"byteOffset":120400,"target":34962},{"buffer":2,"byteLength":24288,"byteOffset":143464,"target":34963},{"buffer":2,"byteLength":2916,"byteOffset":167752,"target":34962},{"buffer":2,"byteLength":2916,"byteOffset":170668,"target":34962},{"buffer":2,"byteLength":1944,"byteOffset":173584,"target":34962},{"buffer":2,"byteLength":40020,"byteOffset":175528,"target":34962},{"buffer":2,"byteLength":40020,"byteOffset":215548,"target":34962},{"buffer":2,"byteLength":26680,"byteOffset":255568,"target":34962},{"buffer":2,"byteLength":29568,"byteOffset":282248,"target":34963},{"buffer":2,"byteLength":3132,"byteOffset":311816,"target":34962},{"buffer":2,"byteLength":3132,"byteOffset":314948,"target":34962},{"buffer":2,"byteLength":2088,"byteOffset":318080,"target":34962},{"buffer":2,"byteLength":2688,"byteOffset":320168,"target":34963},{"buffer":2,"byteLength":3132,"byteOffset":322856,"target":34962},{"buffer":2,"byteLength":3132,"byteOffset":325988,"target":34962},{"buffer":2,"byteLength":2088,"byteOffset":329120,"target":34962},{"buffer":2,"byteLength":2688,"byteOffset":331208,"target":34963},{"buffer":2,"byteLength":12804,"byteOffset":333896,"target":34962},{"buffer":2,"byteLength":12804,"byteOffset":346700,"target":34962},{"buffer":2,"byteLength":8536,"byteOffset":359504,"target":34962},{"buffer":2,"byteLength":10248,"byteOffset":368040,"target":34963},{"buffer":3,"byteLength":167880,"byteOffset":0,"target":34962},{"buffer":3,"byteLength":167880,"byteOffset":167880,"target":34962},{"buffer":3,"byteLength":111920,"byteOffset":335760,"target":34962},{"buffer":3,"byteLength":137328,"byteOffset":447680,"target":34963},{"buffer":3,"byteLength":14736,"byteOffset":585008,"target":34962},{"buffer":3,"byteLength":14736,"byteOffset":599744,"target":34962},{"buffer":3,"byteLength":9824,"byteOffset":614480,"target":34962},{"buffer":3,"byteLength":13224,"byteOffset":624304,"target":34963},{"buffer":3,"byteLength":11976,"byteOffset":637528,"target":34962},{"buffer":3,"byteLength":11976,"byteOffset":649504,"target":34962},{"buffer":3,"byteLength":7984,"byteOffset":661480,"target":34962},{"buffer":3,"byteLength":10500,"byteOffset":669464,"target":34963},{"buffer":3,"byteLength":684,"byteOffset":679964,"target":34962},{"buffer":3,"byteLength":684,"byteOffset":680648,"target":34962},{"buffer":3,"byteLength":456,"byteOffset":681332,"target":34962},{"buffer":3,"byteLength":420,"byteOffset":681788,"target":34963},{"buffer":3,"byteLength":11904,"byteOffset":682208,"target":34962},{"buffer":3,"byteLength":11904,"byteOffset":694112,"target":34962},{"buffer":3,"byteLength":7936,"byteOffset":706016,"target":34962},{"buffer":3,"byteLength":10440,"byteOffset":713952,"target":34963},{"buffer":3,"byteLength":780,"byteOffset":724392,"target":34962},{"buffer":3,"byteLength":780,"byteOffset":725172,"target":34962},{"buffer":3,"byteLength":520,"byteOffset":725952,"target":34962},{"buffer":3,"byteLength":480,"byteOffset":726472,"target":34963},{"buffer":3,"byteLength":105132,"byteOffset":726952,"target":34962},{"buffer":3,"byteLength":105132,"byteOffset":832084,"target":34962},{"buffer":3,"byteLength":70088,"byteOffset":937216,"target":34962},{"buffer":3,"byteLength":86556,"byteOffset":1007304,"target":34963},{"buffer":3,"byteLength":167880,"byteOffset":1093860,"target":34962},{"buffer":3,"byteLength":167880,"byteOffset":1261740,"target":34962},{"buffer":3,"byteLength":111920,"byteOffset":1429620,"target":34962},{"buffer":3,"byteLength":14736,"byteOffset":1541540,"target":34962},{"buffer":3,"byteLength":14736,"byteOffset":1556276,"target":34962},{"buffer":3,"byteLength":9824,"byteOffset":1571012,"target":34962},{"buffer":3,"byteLength":11976,"byteOffset":1580836,"target":34962},{"buffer":3,"byteLength":11976,"byteOffset":1592812,"target":34962},{"buffer":3,"byteLength":7984,"byteOffset":1604788,"target":34962},{"buffer":3,"byteLength":684,"byteOffset":1612772,"target":34962},{"buffer":3,"byteLength":684,"byteOffset":1613456,"target":34962},{"buffer":3,"byteLength":456,"byteOffset":1614140,"target":34962},{"buffer":3,"byteLength":11904,"byteOffset":1614596,"target":34962},{"buffer":3,"byteLength":11904,"byteOffset":1626500,"target":34962},{"buffer":3,"byteLength":7936,"byteOffset":1638404,"target":34962},{"buffer":3,"byteLength":780,"byteOffset":1646340,"target":34962},{"buffer":3,"byteLength":780,"byteOffset":1647120,"target":34962},{"buffer":3,"byteLength":520,"byteOffset":1647900,"target":34962},{"buffer":3,"byteLength":105132,"byteOffset":1648420,"target":34962},{"buffer":3,"byteLength":105132,"byteOffset":1753552,"target":34962},{"buffer":3,"byteLength":70088,"byteOffset":1858684,"target":34962},{"buffer":4,"byteLength":81336,"byteOffset":0,"target":34962},{"buffer":4,"byteLength":81336,"byteOffset":81336,"target":34962},{"buffer":4,"byteLength":54224,"byteOffset":162672,"target":34962},{"buffer":4,"byteLength":56610,"byteOffset":216896,"target":34963},{"buffer":4,"byteLength":756,"byteOffset":273508,"target":34962},{"buffer":4,"byteLength":756,"byteOffset":274264,"target":34962},{"buffer":4,"byteLength":504,"byteOffset":275020,"target":34962},{"buffer":4,"byteLength":348,"byteOffset":275524,"target":34963},{"buffer":4,"byteLength":81336,"byteOffset":275872,"target":34962},{"buffer":4,"byteLength":81336,"byteOffset":357208,"target":34962},{"buffer":4,"byteLength":54224,"byteOffset":438544,"target":34962},{"buffer":4,"byteLength":756,"byteOffset":492768,"target":34962},{"buffer":4,"byteLength":756,"byteOffset":493524,"target":34962},{"buffer":4,"byteLength":504,"byteOffset":494280,"target":34962},{"buffer":5,"byteLength":54024,"byteOffset":0},{"buffer":5,"byteLength":54024,"byteOffset":54024},{"buffer":5,"byteLength":36016,"byteOffset":108048},{"buffer":5,"byteLength":22512,"byteOffset":144064},{"buffer":5,"byteLength":41136,"byteOffset":166576},{"buffer":5,"byteLength":41136,"byteOffset":207712},{"buffer":5,"byteLength":27424,"byteOffset":248848},{"buffer":5,"byteLength":13944,"byteOffset":276272},{"buffer":5,"byteLength":54048,"byteOffset":290216},{"buffer":5,"byteLength":54048,"byteOffset":344264},{"buffer":5,"byteLength":36032,"byteOffset":398312},{"buffer":5,"byteLength":22512,"byteOffset":434344},{"buffer":6,"byteLength":29784,"byteOffset":0,"target":34962},{"buffer":6,"byteLength":29784,"byteOffset":29784,"target":34962},{"buffer":6,"byteLength":19856,"byteOffset":59568,"target":34962},{"buffer":6,"byteLength":26892,"byteOffset":79424,"target":34963},{"buffer":7,"byteLength":7152,"byteOffset":0,"target":34962},{"buffer":7,"byteLength":7152,"byteOffset":7152,"target":34962},{"buffer":7,"byteLength":4768,"byteOffset":14304,"target":34962},{"buffer":7,"byteLength":4152,"byteOffset":19072,"target":34963},{"buffer":7,"byteLength":44472,"byteOffset":23224,"target":34962},{"buffer":7,"byteLength":44472,"byteOffset":67696,"target":34962},{"buffer":7,"byteLength":29648,"byteOffset":112168,"target":34962},{"buffer":7,"byteLength":33048,"byteOffset":141816,"target":34963},{"buffer":7,"byteLength":4608,"byteOffset":174864,"target":34962},{"buffer":7,"byteLength":4608,"byteOffset":179472,"target":34962},{"buffer":7,"byteLength":3072,"byteOffset":184080,"target":34962},{"buffer":7,"byteLength":2256,"byteOffset":187152,"target":34963},{"buffer":0,"byteOffset":0,"byteLength":432,"target":34962},{"buffer":0,"byteOffset":432,"byteLength":432,"target":34962},{"buffer":0,"byteOffset":864,"byteLength":288,"target":34962},{"buffer":0,"byteOffset":1152,"byteLength":288,"target":34962},{"buffer":0,"byteOffset":1440,"byteLength":30240,"target":34962},{"buffer":0,"byteOffset":31680,"byteLength":30240,"target":34962},{"buffer":0,"byteOffset":61920,"byteLength":20160,"target":34962},{"buffer":0,"byteOffset":82080,"byteLength":20160,"target":34962},{"buffer":0,"byteOffset":102240,"byteLength":148464,"target":34962},{"buffer":0,"byteOffset":250704,"byteLength":148464,"target":34962},{"buffer":0,"byteOffset":399168,"byteLength":98976,"target":34962},{"buffer":0,"byteOffset":498144,"byteLength":98976,"target":34962},{"buffer":0,"byteOffset":597120,"byteLength":8208,"target":34962},{"buffer":0,"byteOffset":605328,"byteLength":8208,"target":34962},{"buffer":0,"byteOffset":613536,"byteLength":5472,"target":34962},{"buffer":0,"byteOffset":619008,"byteLength":5472,"target":34962},{"buffer":0,"byteOffset":624480,"byteLength":24624,"target":34962},{"buffer":0,"byteOffset":649104,"byteLength":24624,"target":34962},{"buffer":0,"byteOffset":673728,"byteLength":16416,"target":34962},{"buffer":0,"byteOffset":690144,"byteLength":16416,"target":34962},{"buffer":0,"byteOffset":706560,"byteLength":15552,"target":34962},{"buffer":0,"byteOffset":722112,"byteLength":15552,"target":34962},{"buffer":0,"byteOffset":737664,"byteLength":10368,"target":34962},{"buffer":0,"byteOffset":748032,"byteLength":10368,"target":34962},{"buffer":0,"byteOffset":758400,"byteLength":9936,"target":34962},{"buffer":0,"byteOffset":768336,"byteLength":9936,"target":34962},{"buffer":0,"byteOffset":778272,"byteLength":6624,"target":34962},{"buffer":0,"byteOffset":784896,"byteLength":6624,"target":34962},{"buffer":0,"byteOffset":791520,"byteLength":5616,"target":34962},{"buffer":0,"byteOffset":797136,"byteLength":5616,"target":34962},{"buffer":0,"byteOffset":802752,"byteLength":3744,"target":34962},{"buffer":0,"byteOffset":806496,"byteLength":3744,"target":34962},{"buffer":0,"byteOffset":810240,"byteLength":44928,"target":34962},{"buffer":0,"byteOffset":855168,"byteLength":44928,"target":34962},{"buffer":0,"byteOffset":900096,"byteLength":29952,"target":34962},{"buffer":0,"byteOffset":930048,"byteLength":29952,"target":34962},{"buffer":0,"byteOffset":960000,"byteLength":20160,"target":34962},{"buffer":0,"byteOffset":980160,"byteLength":20160,"target":34962},{"buffer":0,"byteOffset":1000320,"byteLength":13440,"target":34962},{"buffer":0,"byteOffset":1013760,"byteLength":13440,"target":34962},{"buffer":0,"byteOffset":1027200,"byteLength":72,"target":34962},{"buffer":0,"byteOffset":1027272,"byteLength":72,"target":34962},{"buffer":0,"byteOffset":1027344,"byteLength":48,"target":34962},{"buffer":0,"byteOffset":1027392,"byteLength":48,"target":34962},{"buffer":0,"byteOffset":1027440,"byteLength":7200,"target":34962},{"buffer":0,"byteOffset":1034640,"byteLength":7200,"target":34962},{"buffer":0,"byteOffset":1041840,"byteLength":4800,"target":34962},{"buffer":0,"byteOffset":1046640,"byteLength":4800,"target":34962},{"buffer":0,"byteOffset":1051440,"byteLength":72,"target":34962},{"buffer":0,"byteOffset":1051512,"byteLength":72,"target":34962},{"buffer":0,"byteOffset":1051584,"byteLength":48,"target":34962},{"buffer":0,"byteOffset":1051632,"byteLength":48,"target":34962},{"buffer":0,"byteOffset":1051680,"byteLength":72,"target":34962},{"buffer":0,"byteOffset":1051752,"byteLength":72,"target":34962},{"buffer":0,"byteOffset":1051824,"byteLength":48,"target":34962},{"buffer":0,"byteOffset":1051872,"byteLength":48,"target":34962},{"buffer":0,"byteOffset":1051920,"byteLength":9360,"target":34962},{"buffer":0,"byteOffset":1061280,"byteLength":9360,"target":34962},{"buffer":0,"byteOffset":1070640,"byteLength":6240,"target":34962},{"buffer":0,"byteOffset":1076880,"byteLength":6240,"target":34962},{"buffer":0,"byteOffset":1083120,"byteLength":72,"target":34962},{"buffer":0,"byteOffset":1083192,"byteLength":72,"target":34962},{"buffer":0,"byteOffset":1083264,"byteLength":48,"target":34962},{"buffer":0,"byteOffset":1083312,"byteLength":48,"target":34962},{"buffer":0,"byteOffset":1083360,"byteLength":72,"target":34962},{"buffer":0,"byteOffset":1083432,"byteLength":72,"target":34962},{"buffer":0,"byteOffset":1083504,"byteLength":48,"target":34962},{"buffer":0,"byteOffset":1083552,"byteLength":48,"target":34962},{"buffer":0,"byteOffset":1083600,"byteLength":5184,"target":34962},{"buffer":0,"byteOffset":1088784,"byteLength":5184,"target":34962},{"buffer":0,"byteOffset":1093968,"byteLength":3456,"target":34962},{"buffer":0,"byteOffset":1097424,"byteLength":3456,"target":34962}],"accessors":[{"bufferView":0,"componentType":5126,"count":3629,"max":[0.2600001096725464,1.1203334331512451,0.22200000286102295],"min":[-0.2600001096725464,0,-0.20999999344348907],"type":"VEC3"},{"bufferView":1,"componentType":5126,"count":3629,"type":"VEC3"},{"bufferView":2,"componentType":5126,"count":3629,"type":"VEC2"},{"bufferView":3,"componentType":5123,"count":13212,"type":"SCALAR"},{"bufferView":4,"componentType":5126,"count":243,"max":[0.008622199296951294,0.007861060090363026,0.09275384247303009],"min":[-0.06748970597982407,-0.07104594260454178,-0.09275379776954651],"type":"VEC3"},{"bufferView":5,"componentType":5126,"count":243,"type":"VEC3"},{"bufferView":6,"componentType":5126,"count":243,"type":"VEC2"},{"bufferView":7,"componentType":5123,"count":1248,"type":"SCALAR"},{"bufferView":8,"componentType":5126,"count":989,"max":[0.278107225894928,0.07810896635055542,0.278152197599411],"min":[-0.2781825065612793,-0.03683269023895264,-0.27813759446144104],"type":"VEC3"},{"bufferView":9,"componentType":5126,"count":989,"type":"VEC3"},{"bufferView":10,"componentType":5126,"count":989,"type":"VEC2"},{"bufferView":11,"componentType":5123,"count":4644,"type":"SCALAR"},{"bufferView":12,"componentType":5126,"count":2883,"max":[0.30671587586402893,0.9062314629554749,0.2762044072151184],"min":[-0.30671584606170654,7.153064507292584e-05,-0.2761646807193756],"type":"VEC3"},{"bufferView":13,"componentType":5126,"count":2883,"type":"VEC3"},{"bufferView":14,"componentType":5126,"count":2883,"type":"VEC2"},{"bufferView":15,"componentType":5123,"count":12144,"type":"SCALAR"},{"bufferView":16,"componentType":5126,"count":243,"max":[0.013925299048423767,0.01065035443753004,0.09275379776954651],"min":[-0.08598337322473526,-0.05292487516999245,-0.09275384247303009],"type":"VEC3"},{"bufferView":17,"componentType":5126,"count":243,"type":"VEC3"},{"bufferView":18,"componentType":5126,"count":243,"type":"VEC2"},{"bufferView":19,"componentType":5126,"count":3335,"max":[0.3066430985927582,0.9062191247940063,0.27431339025497437],"min":[-0.30478355288505554,6.173570000100881e-05,-0.27429285645484924],"type":"VEC3"},{"bufferView":20,"componentType":5126,"count":3335,"type":"VEC3"},{"bufferView":21,"componentType":5126,"count":3335,"type":"VEC2"},{"bufferView":22,"componentType":5123,"count":14784,"type":"SCALAR"},{"bufferView":23,"componentType":5126,"count":261,"max":[0.008622199296951294,0.007861060090363026,0.09275384247303009],"min":[-0.07773468643426895,-0.07235946506261826,-0.09275379776954651],"type":"VEC3"},{"bufferView":24,"componentType":5126,"count":261,"type":"VEC3"},{"bufferView":25,"componentType":5126,"count":261,"type":"VEC2"},{"bufferView":26,"componentType":5123,"count":1344,"type":"SCALAR"},{"bufferView":27,"componentType":5126,"count":261,"max":[0.06592278182506561,0.007861060090363026,0.09275384247303009],"min":[-0.009286846034228802,-0.06989267468452454,-0.09275379776954651],"type":"VEC3"},{"bufferView":28,"componentType":5126,"count":261,"type":"VEC3"},{"bufferView":29,"componentType":5126,"count":261,"type":"VEC2"},{"bufferView":30,"componentType":5123,"count":1344,"type":"SCALAR"},{"bufferView":31,"componentType":5126,"count":1067,"max":[0.2781030833721161,0.07810896635055542,0.2747277319431305],"min":[-0.2781825065612793,-0.03810993954539299,-0.26922404766082764],"type":"VEC3"},{"bufferView":32,"componentType":5126,"count":1067,"type":"VEC3"},{"bufferView":33,"componentType":5126,"count":1067,"type":"VEC2"},{"bufferView":34,"componentType":5123,"count":5124,"type":"SCALAR"},{"bufferView":35,"componentType":5126,"count":13990,"max":[0.12630069255828857,0.7993673086166382,0.15721319615840912],"min":[-0.12785103917121887,-8.87151836650446e-05,-0.12653666734695435],"type":"VEC3"},{"bufferView":36,"componentType":5126,"count":13990,"type":"VEC3"},{"bufferView":37,"componentType":5126,"count":13990,"type":"VEC2"},{"bufferView":38,"componentType":5123,"count":68664,"type":"SCALAR"},{"bufferView":39,"componentType":5126,"count":1228,"max":[0.12565623223781586,0.5548654198646545,0.1912069022655487],"min":[-0.12573182582855225,0.30560681223869324,0.106272853910923],"type":"VEC3"},{"bufferView":40,"componentType":5126,"count":1228,"type":"VEC3"},{"bufferView":41,"componentType":5126,"count":1228,"type":"VEC2"},{"bufferView":42,"componentType":5123,"count":6612,"type":"SCALAR"},{"bufferView":43,"componentType":5126,"count":998,"max":[0.1289990246295929,0.5974385738372803,0.09460797160863876],"min":[0.07580488920211792,0.5226336717605591,0.022913480177521706],"type":"VEC3"},{"bufferView":44,"componentType":5126,"count":998,"type":"VEC3"},{"bufferView":45,"componentType":5126,"count":998,"type":"VEC2"},{"bufferView":46,"componentType":5123,"count":5250,"type":"SCALAR"},{"bufferView":47,"componentType":5126,"count":57,"max":[0.1328546702861786,0.5746701955795288,0.08414196223020554],"min":[0.1077723354101181,0.5433560609817505,0.05172242224216461],"type":"VEC3"},{"bufferView":48,"componentType":5126,"count":57,"type":"VEC3"},{"bufferView":49,"componentType":5126,"count":57,"type":"VEC2"},{"bufferView":50,"componentType":5123,"count":210,"type":"SCALAR"},{"bufferView":51,"componentType":5126,"count":992,"max":[-0.07492709159851074,0.6084429621696472,0.11020832508802414],"min":[-0.14176887273788452,0.5081241726875305,0.015759196132421494],"type":"VEC3"},{"bufferView":52,"componentType":5126,"count":992,"type":"VEC3"},{"bufferView":53,"componentType":5126,"count":992,"type":"VEC2"},{"bufferView":54,"componentType":5123,"count":5220,"type":"SCALAR"},{"bufferView":55,"componentType":5126,"count":65,"max":[-0.11145898699760437,0.5758379697799683,0.08988629281520844],"min":[-0.14002074301242828,0.5399725437164307,0.05295499786734581],"type":"VEC3"},{"bufferView":56,"componentType":5126,"count":65,"type":"VEC3"},{"bufferView":57,"componentType":5126,"count":65,"type":"VEC2"},{"bufferView":58,"componentType":5123,"count":240,"type":"SCALAR"},{"bufferView":59,"componentType":5126,"count":8761,"max":[0.12316282838582993,0.5796802639961243,0.1688200682401657],"min":[-0.13079358637332916,0.195121169090271,0.04612365737557411],"type":"VEC3"},{"bufferView":60,"componentType":5126,"count":8761,"type":"VEC3"},{"bufferView":61,"componentType":5126,"count":8761,"type":"VEC2"},{"bufferView":62,"componentType":5123,"count":43278,"type":"SCALAR"},{"bufferView":63,"componentType":5126,"count":13990,"max":[0.12630069255828857,0.7993673086166382,0.15721319615840912],"min":[-0.12785103917121887,-8.87151836650446e-05,-0.12653666734695435],"type":"VEC3"},{"bufferView":64,"componentType":5126,"count":13990,"type":"VEC3"},{"bufferView":65,"componentType":5126,"count":13990,"type":"VEC2"},{"bufferView":66,"componentType":5126,"count":1228,"max":[0.12565623223781586,0.5548654198646545,0.1912069022655487],"min":[-0.12573182582855225,0.30560681223869324,0.106272853910923],"type":"VEC3"},{"bufferView":67,"componentType":5126,"count":1228,"type":"VEC3"},{"bufferView":68,"componentType":5126,"count":1228,"type":"VEC2"},{"bufferView":69,"componentType":5126,"count":998,"max":[0.1289990246295929,0.5974385738372803,0.09460797160863876],"min":[0.07580488920211792,0.5226336717605591,0.022913480177521706],"type":"VEC3"},{"bufferView":70,"componentType":5126,"count":998,"type":"VEC3"},{"bufferView":71,"componentType":5126,"count":998,"type":"VEC2"},{"bufferView":72,"componentType":5126,"count":57,"max":[0.1328546702861786,0.5746701955795288,0.08414196223020554],"min":[0.1077723354101181,0.5433560609817505,0.05172242224216461],"type":"VEC3"},{"bufferView":73,"componentType":5126,"count":57,"type":"VEC3"},{"bufferView":74,"componentType":5126,"count":57,"type":"VEC2"},{"bufferView":75,"componentType":5126,"count":992,"max":[-0.07492709159851074,0.6084429621696472,0.11020832508802414],"min":[-0.14176887273788452,0.5081241726875305,0.015759196132421494],"type":"VEC3"},{"bufferView":76,"componentType":5126,"count":992,"type":"VEC3"},{"bufferView":77,"componentType":5126,"count":992,"type":"VEC2"},{"bufferView":78,"componentType":5126,"count":65,"max":[-0.11145898699760437,0.5758379697799683,0.08988629281520844],"min":[-0.14002074301242828,0.5399725437164307,0.05295499786734581],"type":"VEC3"},{"bufferView":79,"componentType":5126,"count":65,"type":"VEC3"},{"bufferView":80,"componentType":5126,"count":65,"type":"VEC2"},{"bufferView":81,"componentType":5126,"count":8761,"max":[0.12316282838582993,0.5796802639961243,0.1688200682401657],"min":[-0.13079358637332916,0.195121169090271,0.04612365737557411],"type":"VEC3"},{"bufferView":82,"componentType":5126,"count":8761,"type":"VEC3"},{"bufferView":83,"componentType":5126,"count":8761,"type":"VEC2"},{"bufferView":84,"componentType":5126,"count":6778,"max":[0.4072735011577606,0.6078314781188965,0.15819303691387177],"min":[-0.392697811126709,-0.32006561756134033,-0.21596616506576538],"type":"VEC3"},{"bufferView":85,"componentType":5126,"count":6778,"type":"VEC3"},{"bufferView":86,"componentType":5126,"count":6778,"type":"VEC2"},{"bufferView":87,"componentType":5123,"count":28305,"type":"SCALAR"},{"bufferView":88,"componentType":5126,"count":63,"max":[0.25292447209358215,0.5876679420471191,0.06807062774896622],"min":[-0.37436529994010925,0.12634438276290894,-0.09422696381807327],"type":"VEC3"},{"bufferView":89,"componentType":5126,"count":63,"type":"VEC3"},{"bufferView":90,"componentType":5126,"count":63,"type":"VEC2"},{"bufferView":91,"componentType":5123,"count":174,"type":"SCALAR"},{"bufferView":92,"componentType":5126,"count":6778,"max":[0.4072735011577606,0.6078314781188965,0.15819303691387177],"min":[-0.392697811126709,-0.32006561756134033,-0.21596616506576538],"type":"VEC3"},{"bufferView":93,"componentType":5126,"count":6778,"type":"VEC3"},{"bufferView":94,"componentType":5126,"count":6778,"type":"VEC2"},{"bufferView":95,"componentType":5126,"count":63,"max":[0.25292447209358215,0.5876679420471191,0.06807062774896622],"min":[-0.37436529994010925,0.12634438276290894,-0.09422696381807327],"type":"VEC3"},{"bufferView":96,"componentType":5126,"count":63,"type":"VEC3"},{"bufferView":97,"componentType":5126,"count":63,"type":"VEC2"},{"bufferView":98,"componentType":5126,"count":4502,"max":[0.12660439312458038,0.8526440858840942,0.8640562891960144],"min":[-0.34507811069488525,-0.005937529727816582,0.2645845413208008],"type":"VEC3"},{"bufferView":99,"componentType":5126,"count":4502,"type":"VEC3"},{"bufferView":100,"componentType":5126,"count":4502,"type":"VEC2"},{"bufferView":101,"componentType":5123,"count":11256,"type":"SCALAR"},{"bufferView":102,"componentType":5126,"count":3428,"max":[0.2661757171154022,0.7259218692779541,0.41698747873306274],"min":[-0.4255073368549347,-3.356562316980671e-08,-0.2748631536960602],"type":"VEC3"},{"bufferView":103,"componentType":5126,"count":3428,"type":"VEC3"},{"bufferView":104,"componentType":5126,"count":3428,"type":"VEC2"},{"bufferView":105,"componentType":5123,"count":6972,"type":"SCALAR"},{"bufferView":106,"componentType":5126,"count":4504,"max":[0.36703503131866455,0.8526440858840942,-0.17118015885353088],"min":[-0.23045846819877625,-0.005937529727816582,-0.8422229290008545],"type":"VEC3"},{"bufferView":107,"componentType":5126,"count":4504,"type":"VEC3"},{"bufferView":108,"componentType":5126,"count":4504,"type":"VEC2"},{"bufferView":109,"componentType":5123,"count":11256,"type":"SCALAR"},{"bufferView":110,"componentType":5126,"count":2482,"max":[0.26759958267211914,0.5735452175140381,0.22307318449020386],"min":[-0.2604704797267914,-0.0014541670680046082,-0.23981982469558716],"type":"VEC3"},{"bufferView":111,"componentType":5126,"count":2482,"type":"VEC3"},{"bufferView":112,"componentType":5126,"count":2482,"type":"VEC2"},{"bufferView":113,"componentType":5123,"count":13446,"type":"SCALAR"},{"bufferView":114,"componentType":5126,"count":596,"max":[0.3539096713066101,0.3416849374771118,0.1961396187543869],"min":[-0.3539096713066101,0.29946234822273254,-0.1961396187543869],"type":"VEC3"},{"bufferView":115,"componentType":5126,"count":596,"type":"VEC3"},{"bufferView":116,"componentType":5126,"count":596,"type":"VEC2"},{"bufferView":117,"componentType":5123,"count":2076,"type":"SCALAR"},{"bufferView":118,"componentType":5126,"count":3706,"max":[0.4126364588737488,0.3139750361442566,0.2128141224384308],"min":[-0.4126364588737488,-0.00793334562331438,-0.19549614191055298],"type":"VEC3"},{"bufferView":119,"componentType":5126,"count":3706,"type":"VEC3"},{"bufferView":120,"componentType":5126,"count":3706,"type":"VEC2"},{"bufferView":121,"componentType":5123,"count":16524,"type":"SCALAR"},{"bufferView":122,"componentType":5126,"count":384,"max":[0.009643923491239548,0.3357900381088257,0.2071036398410797],"min":[-0.016070956364274025,0.2390938252210617,0.1312473714351654],"type":"VEC3"},{"bufferView":123,"componentType":5126,"count":384,"type":"VEC3"},{"bufferView":124,"componentType":5126,"count":384,"type":"VEC2"},{"bufferView":125,"componentType":5123,"count":1128,"type":"SCALAR"},{"bufferView":126,"componentType":5126,"count":36,"type":"VEC3","min":[-3.7,-0.26,-11.0],"max":[3.7,0.0,27.0]},{"bufferView":127,"componentType":5126,"count":36,"type":"VEC3"},{"bufferView":128,"componentType":5126,"count":36,"type":"VEC2"},{"bufferView":129,"componentType":5126,"count":36,"type":"VEC2"},{"bufferView":130,"componentType":5126,"count":2520,"type":"VEC3","min":[-3.54,0.0,-11.0],"max":[3.54,12.06,28.0]},{"bufferView":131,"componentType":5126,"count":2520,"type":"VEC3"},{"bufferView":132,"componentType":5126,"count":2520,"type":"VEC2"},{"bufferView":133,"componentType":5126,"count":2520,"type":"VEC2"},{"bufferView":134,"componentType":5126,"count":12372,"type":"VEC3","min":[-3.54,0.0,-10.007],"max":[3.54,11.8,26.007]},{"bufferView":135,"componentType":5126,"count":12372,"type":"VEC3"},{"bufferView":136,"componentType":5126,"count":12372,"type":"VEC2"},{"bufferView":137,"componentType":5126,"count":12372,"type":"VEC2"},{"bufferView":138,"componentType":5126,"count":684,"type":"VEC3","min":[-3.86,0.0,-10.3],"max":[3.86,12.2,28.0]},{"bufferView":139,"componentType":5126,"count":684,"type":"VEC3"},{"bufferView":140,"componentType":5126,"count":684,"type":"VEC2"},{"bufferView":141,"componentType":5126,"count":684,"type":"VEC2"},{"bufferView":142,"componentType":5126,"count":2052,"type":"VEC3","min":[-3.6599999999999997,0.0,-9.65],"max":[3.6599999999999997,9.75,24.65]},{"bufferView":143,"componentType":5126,"count":2052,"type":"VEC3"},{"bufferView":144,"componentType":5126,"count":2052,"type":"VEC2"},{"bufferView":145,"componentType":5126,"count":2052,"type":"VEC2"},{"bufferView":146,"componentType":5126,"count":1296,"type":"VEC3","min":[-3.466,0.07499999999999996,-9.47],"max":[3.466,9.625,24.47]},{"bufferView":147,"componentType":5126,"count":1296,"type":"VEC3"},{"bufferView":148,"componentType":5126,"count":1296,"type":"VEC2"},{"bufferView":149,"componentType":5126,"count":1296,"type":"VEC2"},{"bufferView":150,"componentType":5126,"count":828,"type":"VEC3","min":[-3.4179999999999997,2.0549999999999997,-9.42],"max":[3.4179999999999997,6.354589803375031,24.42]},{"bufferView":151,"componentType":5126,"count":828,"type":"VEC3"},{"bufferView":152,"componentType":5126,"count":828,"type":"VEC2"},{"bufferView":153,"componentType":5126,"count":828,"type":"VEC2"},{"bufferView":154,"componentType":5126,"count":468,"type":"VEC3","min":[-3.327,3.9,-8.16],"max":[3.327,9.625,23.5625]},{"bufferView":155,"componentType":5126,"count":468,"type":"VEC3"},{"bufferView":156,"componentType":5126,"count":468,"type":"VEC2"},{"bufferView":157,"componentType":5126,"count":468,"type":"VEC2"},{"bufferView":158,"componentType":5126,"count":3744,"type":"VEC3","min":[-3.3005,3.9974999999999996,-8.16],"max":[3.3005,9.5,23.515]},{"bufferView":159,"componentType":5126,"count":3744,"type":"VEC3"},{"bufferView":160,"componentType":5126,"count":3744,"type":"VEC2"},{"bufferView":161,"componentType":5126,"count":3744,"type":"VEC2"},{"bufferView":162,"componentType":5126,"count":1680,"type":"VEC3","min":[-3.3449999999999998,0.050000000000000044,-5.075],"max":[3.3449999999999998,11.03,23.4975]},{"bufferView":163,"componentType":5126,"count":1680,"type":"VEC3"},{"bufferView":164,"componentType":5126,"count":1680,"type":"VEC2"},{"bufferView":165,"componentType":5126,"count":1680,"type":"VEC2"},{"bufferView":166,"componentType":5126,"count":6,"type":"VEC3","min":[-2.85,3.225,23.369],"max":[2.85,4.075,23.369]},{"bufferView":167,"componentType":5126,"count":6,"type":"VEC3"},{"bufferView":168,"componentType":5126,"count":6,"type":"VEC2"},{"bufferView":169,"componentType":5126,"count":6,"type":"VEC2"},{"bufferView":170,"componentType":5126,"count":600,"type":"VEC3","min":[-2.861412678195542,2.638587321804458,-0.78],"max":[2.951412678195542,5.861412678195541,23.367]},{"bufferView":171,"componentType":5126,"count":600,"type":"VEC3"},{"bufferView":172,"componentType":5126,"count":600,"type":"VEC2"},{"bufferView":173,"componentType":5126,"count":600,"type":"VEC2"},{"bufferView":174,"componentType":5126,"count":6,"type":"VEC3","min":[2.1599999999999997,2.65,1.189],"max":[2.94,5.85,1.189]},{"bufferView":175,"componentType":5126,"count":6,"type":"VEC3"},{"bufferView":176,"componentType":5126,"count":6,"type":"VEC2"},{"bufferView":177,"componentType":5126,"count":6,"type":"VEC2"},{"bufferView":178,"componentType":5126,"count":6,"type":"VEC3","min":[-2.95,2.425,6.5889999999999995],"max":[-2.21,5.175,6.5889999999999995]},{"bufferView":179,"componentType":5126,"count":6,"type":"VEC3"},{"bufferView":180,"componentType":5126,"count":6,"type":"VEC2"},{"bufferView":181,"componentType":5126,"count":6,"type":"VEC2"},{"bufferView":182,"componentType":5126,"count":780,"type":"VEC3","min":[-2.961412678195542,1.5785873218044582,5.22],"max":[3.186412678195542,5.186412678195541,14.287]},{"bufferView":183,"componentType":5126,"count":780,"type":"VEC3"},{"bufferView":184,"componentType":5126,"count":780,"type":"VEC2"},{"bufferView":185,"componentType":5126,"count":780,"type":"VEC2"},{"bufferView":186,"componentType":5126,"count":6,"type":"VEC3","min":[1.725,3.0300000000000002,14.289000000000001],"max":[3.1750000000000003,3.67,14.289000000000001]},{"bufferView":187,"componentType":5126,"count":6,"type":"VEC3"},{"bufferView":188,"componentType":5126,"count":6,"type":"VEC2"},{"bufferView":189,"componentType":5126,"count":6,"type":"VEC2"},{"bufferView":190,"componentType":5126,"count":6,"type":"VEC3","min":[-2.87,1.59,9.189],"max":[-1.7699999999999998,1.97,9.189]},{"bufferView":191,"componentType":5126,"count":6,"type":"VEC3"},{"bufferView":192,"componentType":5126,"count":6,"type":"VEC2"},{"bufferView":193,"componentType":5126,"count":6,"type":"VEC2"},{"bufferView":194,"componentType":5126,"count":432,"type":"VEC3","min":[-2.6375,0.001,-5.9],"max":[2.6375,0.009000000000000001,20.9]},{"bufferView":195,"componentType":5126,"count":432,"type":"VEC3"},{"bufferView":196,"componentType":5126,"count":432,"type":"VEC2"},{"bufferView":197,"componentType":5126,"count":432,"type":"VEC2"}],"images":[{"uri":"sources/asphalt_02/asphalt_02_diff_2k.jpg"},{"uri":"sources/asphalt_02/asphalt_02_arm_2k.jpg"},{"uri":"sources/asphalt_02/asphalt_02_nor_gl_2k.jpg"},{"uri":"sources/brick_wall_001/brick_wall_001_diffuse_2k.jpg"},{"uri":"sources/brick_wall_001/brick_wall_001_arm_2k.jpg"},{"uri":"sources/brick_wall_001/brick_wall_001_nor_gl_2k.jpg"},{"uri":"sources/concrete_floor_worn_001/concrete_floor_worn_001_diff_2k.jpg"},{"uri":"sources/concrete_floor_worn_001/concrete_floor_worn_001_arm_2k.jpg"},{"uri":"sources/concrete_floor_worn_001/concrete_floor_worn_001_nor_gl_2k.jpg"},{"mimeType":"image/jpeg","name":"utility_box_01_nor_gl","uri":"sources/utility_box_01/textures/utility_box_01_nor_gl_1k.jpg"},{"mimeType":"image/jpeg","name":"utility_box_01_diff","uri":"sources/utility_box_01/textures/utility_box_01_diff_1k.jpg"},{"mimeType":"image/jpeg","name":"utility_box_01_metal-utility_box_01_rough","uri":"sources/utility_box_01/textures/utility_box_01_arm_1k.jpg"},{"mimeType":"image/jpeg","name":"metal_trash_can_nor_gl","uri":"sources/metal_trash_can/textures/metal_trash_can_nor_gl_1k.jpg"},{"mimeType":"image/jpeg","name":"metal_trash_can_diff","uri":"sources/metal_trash_can/textures/metal_trash_can_diff_1k.jpg"},{"mimeType":"image/jpeg","name":"metal_trash_can_metal-metal_trash_can_rough","uri":"sources/metal_trash_can/textures/metal_trash_can_arm_1k.jpg"},{"mimeType":"image/jpeg","name":"metal_trash_can_rust_nor_gl","uri":"sources/metal_trash_can/textures/metal_trash_can_rust_nor_gl_1k.jpg"},{"mimeType":"image/jpeg","name":"metal_trash_can_rust_diff","uri":"sources/metal_trash_can/textures/metal_trash_can_rust_diff_1k.jpg"},{"mimeType":"image/jpeg","name":"metal_trash_can_rust_metal-metal_trash_can_rust_rough","uri":"sources/metal_trash_can/textures/metal_trash_can_rust_arm_1k.jpg"},{"mimeType":"image/jpeg","name":"fire_hydrant_nor_gl","uri":"sources/fire_hydrant/textures/fire_hydrant_nor_gl_1k.jpg"},{"mimeType":"image/jpeg","name":"fire_hydrant_diff","uri":"sources/fire_hydrant/textures/fire_hydrant_diff_1k.jpg"},{"mimeType":"image/jpeg","name":"fire_hydrant_metal-fire_hydrant_rough","uri":"sources/fire_hydrant/textures/fire_hydrant_arm_1k.jpg"},{"mimeType":"image/jpeg","name":"fire_hydrant_aged_nor_gl","uri":"sources/fire_hydrant/textures/fire_hydrant_aged_nor_gl_1k.jpg"},{"mimeType":"image/jpeg","name":"fire_hydrant_aged_diff","uri":"sources/fire_hydrant/textures/fire_hydrant_aged_diff_1k.jpg"},{"mimeType":"image/jpeg","name":"fire_hydrant_aged_metal-fire_hydrant_aged_rough","uri":"sources/fire_hydrant/textures/fire_hydrant_aged_arm_1k.jpg"},{"mimeType":"image/jpeg","name":"exterior_aircon_unit_01_nor_gl","uri":"sources/exterior_aircon_unit/textures/exterior_aircon_unit_01_nor_gl_1k.jpg"},{"mimeType":"image/jpeg","name":"exterior_aircon_unit_01_diff","uri":"sources/exterior_aircon_unit/textures/exterior_aircon_unit_01_diff_1k.jpg"},{"mimeType":"image/jpeg","name":"exterior_aircon_unit_01_metal-exterior_aircon_unit_01_rough","uri":"sources/exterior_aircon_unit/textures/exterior_aircon_unit_01_arm_1k.jpg"},{"mimeType":"image/jpeg","name":"exterior_aircon_unit_02_nor_gl","uri":"sources/exterior_aircon_unit/textures/exterior_aircon_unit_02_nor_gl_1k.jpg"},{"mimeType":"image/jpeg","name":"exterior_aircon_unit_02_diff-exterior_aircon_unit_01_opacity","uri":"sources/exterior_aircon_unit/textures/exterior_aircon_unit_01_opacity_1k.jpg"},{"mimeType":"image/jpeg","name":"exterior_aircon_unit_02_metal-exterior_aircon_unit_02_rough","uri":"sources/exterior_aircon_unit/textures/exterior_aircon_unit_02_arm_1k.jpg"},{"mimeType":"image/jpeg","name":"exterior_aircon_unit_rusted_01_nor_gl","uri":"sources/exterior_aircon_unit/textures/exterior_aircon_unit_rusted_01_nor_gl_1k.jpg"},{"mimeType":"image/jpeg","name":"exterior_aircon_unit_rusted_01_diff","uri":"sources/exterior_aircon_unit/textures/exterior_aircon_unit_rusted_01_diff_1k.jpg"},{"mimeType":"image/jpeg","name":"exterior_aircon_unit_rusted_01_metal-exterior_aircon_unit_rusted_01_rough","uri":"sources/exterior_aircon_unit/textures/exterior_aircon_unit_rusted_01_arm_1k.jpg"},{"mimeType":"image/jpeg","name":"exterior_aircon_unit_rusted_02_nor_gl","uri":"sources/exterior_aircon_unit/textures/exterior_aircon_unit_rusted_02_nor_gl_1k.jpg"},{"mimeType":"image/jpeg","name":"exterior_aircon_unit_rusted_02_diff-exterior_aircon_unit_rusted_02_opacity","uri":"sources/exterior_aircon_unit/textures/exterior_aircon_unit_rusted_02_opacity_1k.jpg"},{"mimeType":"image/jpeg","name":"exterior_aircon_unit_rusted_02_metal-exterior_aircon_unit_rusted_02_rough","uri":"sources/exterior_aircon_unit/textures/exterior_aircon_unit_rusted_02_arm_1k.jpg"},{"mimeType":"image/jpeg","name":"outdoor_table_chair_set_01_chair_nor_gl","uri":"sources/outdoor_table_chair_set_01/textures/outdoor_table_chair_set_01_chair_nor_gl_1k.jpg"},{"mimeType":"image/jpeg","name":"outdoor_table_chair_set_01_chair_diff","uri":"sources/outdoor_table_chair_set_01/textures/outdoor_table_chair_set_01_chair_diff_1k.jpg"},{"mimeType":"image/jpeg","name":"outdoor_table_chair_set_01_chair_metal-outdoor_table_chair_set_01_chair_rough","uri":"sources/outdoor_table_chair_set_01/textures/outdoor_table_chair_set_01_chair_arm_1k.jpg"},{"mimeType":"image/jpeg","name":"outdoor_table_chair_set_01_table_nor_gl","uri":"sources/outdoor_table_chair_set_01/textures/outdoor_table_chair_set_01_table_nor_gl_1k.jpg"},{"mimeType":"image/jpeg","name":"outdoor_table_chair_set_01_table_diff","uri":"sources/outdoor_table_chair_set_01/textures/outdoor_table_chair_set_01_table_diff_1k.jpg"},{"mimeType":"image/jpeg","name":"outdoor_table_chair_set_01_table_metal-outdoor_table_chair_set_01_table_rough","uri":"sources/outdoor_table_chair_set_01/textures/outdoor_table_chair_set_01_table_arm_1k.jpg"},{"mimeType":"image/jpeg","name":"trashbag_nor_gl","uri":"sources/trashbag/textures/trashbag_nor_gl_1k.jpg"},{"mimeType":"image/jpeg","name":"trashbag_diff","uri":"sources/trashbag/textures/trashbag_diff_1k.jpg"},{"mimeType":"image/jpeg","name":"trashbag_rough","uri":"sources/trashbag/textures/trashbag_arm_1k.jpg"},{"mimeType":"image/jpeg","name":"wooden_crate_01_nor_gl","uri":"sources/wooden_crate_01/textures/wooden_crate_01_nor_gl_1k.jpg"},{"mimeType":"image/jpeg","name":"wooden_crate_01_diff","uri":"sources/wooden_crate_01/textures/wooden_crate_01_diff_1k.jpg"},{"mimeType":"image/jpeg","name":"wooden_crate_01_metal-wooden_crate_01_rough","uri":"sources/wooden_crate_01/textures/wooden_crate_01_arm_1k.jpg"},{"uri":"signs/nocturne.png"},{"uri":"signs/motel.png"},{"uri":"signs/ramen.png"},{"uri":"signs/bar.png"},{"uri":"signs/open.png"},{"uri":"wet-asphalt-arm.png"}],"samplers":[{"magFilter":9729,"minFilter":9987,"wrapS":10497,"wrapT":10497},{"magFilter":9729,"minFilter":9987},{"magFilter":9729,"minFilter":9987},{"magFilter":9729,"minFilter":9987},{"magFilter":9729,"minFilter":9987},{"magFilter":9729,"minFilter":9987},{"magFilter":9729,"minFilter":9987},{"magFilter":9729,"minFilter":9987}],"textures":[{"source":0,"sampler":0},{"source":1,"sampler":0},{"source":2,"sampler":0},{"source":3,"sampler":0},{"source":4,"sampler":0},{"source":5,"sampler":0},{"source":6,"sampler":0},{"source":7,"sampler":0},{"source":8,"sampler":0},{"sampler":1,"source":9},{"sampler":1,"source":10},{"sampler":1,"source":11},{"sampler":2,"source":12},{"sampler":2,"source":13},{"sampler":2,"source":14},{"sampler":2,"source":15},{"sampler":2,"source":16},{"sampler":2,"source":17},{"sampler":2,"source":15},{"sampler":2,"source":16},{"sampler":2,"source":17},{"sampler":3,"source":18},{"sampler":3,"source":19},{"sampler":3,"source":20},{"sampler":3,"source":21},{"sampler":3,"source":22},{"sampler":3,"source":23},{"sampler":4,"source":24},{"sampler":4,"source":25},{"sampler":4,"source":26},{"sampler":4,"source":27},{"sampler":4,"source":28},{"sampler":4,"source":29},{"sampler":4,"source":30},{"sampler":4,"source":31},{"sampler":4,"source":32},{"sampler":4,"source":33},{"sampler":4,"source":34},{"sampler":4,"source":35},{"sampler":5,"source":36},{"sampler":5,"source":37},{"sampler":5,"source":38},{"sampler":5,"source":39},{"sampler":5,"source":40},{"sampler":5,"source":41},{"sampler":6,"source":42},{"sampler":6,"source":43},{"sampler":6,"source":44},{"sampler":7,"source":45},{"sampler":7,"source":46},{"sampler":7,"source":47},{"source":48,"sampler":0},{"source":49,"sampler":0},{"source":50,"sampler":0},{"source":51,"sampler":0},{"source":52,"sampler":0},{"source":53,"sampler":0}],"materials":[{"name":"Rain-darkened scanned asphalt","pbrMetallicRoughness":{"baseColorFactor":[0.28,0.31,0.34,1],"metallicFactor":0,"roughnessFactor":1,"baseColorTexture":{"index":0},"metallicRoughnessTexture":{"index":56,"texCoord":1}},"occlusionTexture":{"index":1,"strength":0.75},"normalTexture":{"index":2,"scale":0.22}},{"name":"Weathered brick masonry","pbrMetallicRoughness":{"baseColorFactor":[0.53,0.43,0.39,1],"metallicFactor":0,"roughnessFactor":0.86,"baseColorTexture":{"index":3},"metallicRoughnessTexture":{"index":4}},"occlusionTexture":{"index":4,"strength":0.75},"normalTexture":{"index":5,"scale":0.8}},{"name":"Worn damp concrete","pbrMetallicRoughness":{"baseColorFactor":[0.45,0.48,0.48,1],"metallicFactor":0,"roughnessFactor":0.65,"baseColorTexture":{"index":6},"metallicRoughnessTexture":{"index":7}},"occlusionTexture":{"index":7,"strength":0.75},"normalTexture":{"index":8,"scale":0.55}},{"name":"Midnight blue painted steel","pbrMetallicRoughness":{"baseColorFactor":[0.025,0.049,0.055,1],"metallicFactor":0.55,"roughnessFactor":0.28}},{"name":"Oxidised charcoal metal","pbrMetallicRoughness":{"baseColorFactor":[0.075,0.083,0.085,1],"metallicFactor":0.85,"roughnessFactor":0.38}},{"name":"Brushed aluminium","pbrMetallicRoughness":{"baseColorFactor":[0.5,0.53,0.55,1],"metallicFactor":0.95,"roughnessFactor":0.24}},{"name":"Dark stained wood","pbrMetallicRoughness":{"baseColorFactor":[0.075,0.035,0.021,1],"metallicFactor":0,"roughnessFactor":0.54}},{"name":"Dark reflective shop glass","pbrMetallicRoughness":{"baseColorFactor":[0.012,0.022,0.028,1],"metallicFactor":0.55,"roughnessFactor":0.075}},{"name":"Thin still rain puddles","pbrMetallicRoughness":{"baseColorFactor":[0.018,0.027,0.032,1],"metallicFactor":0,"roughnessFactor":0.065}},{"name":"Worn painted road marking","pbrMetallicRoughness":{"baseColorFactor":[0.58,0.53,0.39,1],"metallicFactor":0,"roughnessFactor":0.56}},{"name":"Hot pink neon tube","pbrMetallicRoughness":{"baseColorFactor":[0.1,0.005,0.02,1],"metallicFactor":0,"roughnessFactor":0.24},"emissiveFactor":[1,0.013,0.19],"extensions":{"KHR_materials_emissive_strength":{"emissiveStrength":55}}},{"name":"Ice cyan neon tube","pbrMetallicRoughness":{"baseColorFactor":[0.002,0.04,0.05,1],"metallicFactor":0,"roughnessFactor":0.24},"emissiveFactor":[0.015,0.7,1],"extensions":{"KHR_materials_emissive_strength":{"emissiveStrength":40}}},{"name":"Warm tungsten practical","pbrMetallicRoughness":{"baseColorFactor":[0.09,0.035,0.009,1],"metallicFactor":0,"roughnessFactor":0.35},"emissiveFactor":[1,0.39,0.12],"extensions":{"KHR_materials_emissive_strength":{"emissiveStrength":2.2}}},{"name":"Distant occupied windows","pbrMetallicRoughness":{"baseColorFactor":[0.09,0.04,0.012,1],"metallicFactor":0,"roughnessFactor":0.45},"emissiveFactor":[1,0.49,0.22],"extensions":{"KHR_materials_emissive_strength":{"emissiveStrength":0.45}}},{"doubleSided":true,"name":"utility_box_01","normalTexture":{"index":9},"pbrMetallicRoughness":{"baseColorTexture":{"index":10},"metallicRoughnessTexture":{"index":11}}},{"doubleSided":true,"name":"metal_trash_can","normalTexture":{"index":12},"pbrMetallicRoughness":{"baseColorTexture":{"index":13},"metallicRoughnessTexture":{"index":14}}},{"doubleSided":true,"name":"metal_trash_can_rust","normalTexture":{"index":15},"pbrMetallicRoughness":{"baseColorTexture":{"index":16},"metallicRoughnessTexture":{"index":17}}},{"doubleSided":true,"name":"metal_trash_can_rust","normalTexture":{"index":18},"pbrMetallicRoughness":{"baseColorTexture":{"index":19},"metallicRoughnessTexture":{"index":20}}},{"doubleSided":true,"name":"fire_hydrant","normalTexture":{"index":21},"pbrMetallicRoughness":{"baseColorTexture":{"index":22},"metallicRoughnessTexture":{"index":23}}},{"doubleSided":true,"name":"fire_hydrant_aged","normalTexture":{"index":24},"pbrMetallicRoughness":{"baseColorTexture":{"index":25},"metallicRoughnessTexture":{"index":26}}},{"doubleSided":true,"name":"exterior_aircon_unit_01","normalTexture":{"index":27},"pbrMetallicRoughness":{"baseColorTexture":{"index":28},"metallicRoughnessTexture":{"index":29}}},{"alphaMode":"BLEND","doubleSided":true,"name":"exterior_aircon_unit_02","normalTexture":{"index":30},"pbrMetallicRoughness":{"baseColorTexture":{"index":31},"metallicRoughnessTexture":{"index":32}}},{"doubleSided":true,"name":"exterior_aircon_unit_rusted_01","normalTexture":{"index":33},"pbrMetallicRoughness":{"baseColorTexture":{"index":34},"metallicRoughnessTexture":{"index":35}}},{"alphaMode":"BLEND","doubleSided":true,"name":"exterior_aircon_unit_rusted_02","normalTexture":{"index":36},"pbrMetallicRoughness":{"baseColorTexture":{"index":37},"metallicRoughnessTexture":{"index":38}}},{"doubleSided":true,"name":"outdoor_table_chair_set_01_chair","normalTexture":{"index":39},"pbrMetallicRoughness":{"baseColorTexture":{"index":40},"metallicRoughnessTexture":{"index":41}}},{"doubleSided":true,"name":"outdoor_table_chair_set_01_table","normalTexture":{"index":42},"pbrMetallicRoughness":{"baseColorTexture":{"index":43},"metallicRoughnessTexture":{"index":44}}},{"doubleSided":true,"name":"trashbag","normalTexture":{"index":45},"pbrMetallicRoughness":{"baseColorTexture":{"index":46},"metallicFactor":0,"metallicRoughnessTexture":{"index":47}}},{"doubleSided":true,"name":"wooden_crate_01","normalTexture":{"index":48},"pbrMetallicRoughness":{"baseColorTexture":{"index":49},"metallicRoughnessTexture":{"index":50}}},{"name":"nocturne luminous lettering","pbrMetallicRoughness":{"baseColorFactor":[0.009,0.013,0.017,1],"metallicFactor":0,"roughnessFactor":0.32},"emissiveFactor":[0.02,0.65,1],"extensions":{"KHR_materials_emissive_strength":{"emissiveStrength":26}},"emissiveTexture":{"index":51}},{"name":"motel luminous lettering","pbrMetallicRoughness":{"baseColorFactor":[0.009,0.013,0.017,1],"metallicFactor":0,"roughnessFactor":0.32},"emissiveFactor":[0.02,0.65,1],"extensions":{"KHR_materials_emissive_strength":{"emissiveStrength":24}},"emissiveTexture":{"index":52}},{"name":"ramen luminous lettering","pbrMetallicRoughness":{"baseColorFactor":[0.009,0.013,0.017,1],"metallicFactor":0,"roughnessFactor":0.32},"emissiveFactor":[1,0.01,0.15],"extensions":{"KHR_materials_emissive_strength":{"emissiveStrength":30}},"emissiveTexture":{"index":53}},{"name":"bar luminous lettering","pbrMetallicRoughness":{"baseColorFactor":[0.009,0.013,0.017,1],"metallicFactor":0,"roughnessFactor":0.32},"emissiveFactor":[1,0.03,0.23],"extensions":{"KHR_materials_emissive_strength":{"emissiveStrength":20}},"emissiveTexture":{"index":54}},{"name":"open luminous lettering","pbrMetallicRoughness":{"baseColorFactor":[0.009,0.013,0.017,1],"metallicFactor":0,"roughnessFactor":0.32},"emissiveFactor":[1,0.04,0.12],"extensions":{"KHR_materials_emissive_strength":{"emissiveStrength":12}},"emissiveTexture":{"index":55}}],"meshes":[{"name":"Cube.028","primitives":[{"attributes":{"POSITION":0,"NORMAL":1,"TEXCOORD_0":2},"indices":3,"material":14}]},{"name":"Cylinder.003","primitives":[{"attributes":{"POSITION":4,"NORMAL":5,"TEXCOORD_0":6},"indices":7,"material":15}]},{"name":"Cylinder.002","primitives":[{"attributes":{"POSITION":8,"NORMAL":9,"TEXCOORD_0":10},"indices":11,"material":15}]},{"name":"Cylinder","primitives":[{"attributes":{"POSITION":12,"NORMAL":13,"TEXCOORD_0":14},"indices":15,"material":15}]},{"name":"Cylinder.001","primitives":[{"attributes":{"POSITION":16,"NORMAL":17,"TEXCOORD_0":18},"indices":7,"material":15}]},{"name":"Cylinder.005","primitives":[{"attributes":{"POSITION":19,"NORMAL":20,"TEXCOORD_0":21},"indices":22,"material":16}]},{"name":"Cylinder.007","primitives":[{"attributes":{"POSITION":23,"NORMAL":24,"TEXCOORD_0":25},"indices":26,"material":17}]},{"name":"Cylinder.008","primitives":[{"attributes":{"POSITION":27,"NORMAL":28,"TEXCOORD_0":29},"indices":30,"material":17}]},{"name":"Cylinder.006","primitives":[{"attributes":{"POSITION":31,"NORMAL":32,"TEXCOORD_0":33},"indices":34,"material":17}]},{"name":"Cylinder.001","primitives":[{"attributes":{"POSITION":35,"NORMAL":36,"TEXCOORD_0":37},"indices":38,"material":18}]},{"name":"Cylinder.024","primitives":[{"attributes":{"POSITION":39,"NORMAL":40,"TEXCOORD_0":41},"indices":42,"material":18}]},{"name":"Cylinder.026","primitives":[{"attributes":{"POSITION":43,"NORMAL":44,"TEXCOORD_0":45},"indices":46,"material":18},{"attributes":{"POSITION":47,"NORMAL":48,"TEXCOORD_0":49},"indices":50,"material":18}]},{"name":"Cylinder.025","primitives":[{"attributes":{"POSITION":51,"NORMAL":52,"TEXCOORD_0":53},"indices":54,"material":18},{"attributes":{"POSITION":55,"NORMAL":56,"TEXCOORD_0":57},"indices":58,"material":18}]},{"name":"BezierCurve.040","primitives":[{"attributes":{"POSITION":59,"NORMAL":60,"TEXCOORD_0":61},"indices":62,"material":18}]},{"name":"Cylinder.006","primitives":[{"attributes":{"POSITION":63,"NORMAL":64,"TEXCOORD_0":65},"indices":38,"material":19}]},{"name":"Cylinder.007","primitives":[{"attributes":{"POSITION":66,"NORMAL":67,"TEXCOORD_0":68},"indices":42,"material":19}]},{"name":"Cylinder.009","primitives":[{"attributes":{"POSITION":69,"NORMAL":70,"TEXCOORD_0":71},"indices":46,"material":19},{"attributes":{"POSITION":72,"NORMAL":73,"TEXCOORD_0":74},"indices":50,"material":19}]},{"name":"Cylinder.008","primitives":[{"attributes":{"POSITION":75,"NORMAL":76,"TEXCOORD_0":77},"indices":54,"material":19},{"attributes":{"POSITION":78,"NORMAL":79,"TEXCOORD_0":80},"indices":58,"material":19}]},{"name":"BezierCurve.002","primitives":[{"attributes":{"POSITION":81,"NORMAL":82,"TEXCOORD_0":83},"indices":62,"material":19}]},{"name":"exterior_aircon_unit","primitives":[{"attributes":{"POSITION":84,"NORMAL":85,"TEXCOORD_0":86},"indices":87,"material":20},{"attributes":{"POSITION":88,"NORMAL":89,"TEXCOORD_0":90},"indices":91,"material":21}]},{"name":"exterior_aircon_unit_rusted","primitives":[{"attributes":{"POSITION":92,"NORMAL":93,"TEXCOORD_0":94},"indices":87,"material":22},{"attributes":{"POSITION":95,"NORMAL":96,"TEXCOORD_0":97},"indices":91,"material":23}]},{"name":"Folding_Chair_Wood","primitives":[{"attributes":{"POSITION":98,"NORMAL":99,"TEXCOORD_0":100},"indices":101,"material":24}]},{"name":"Folding_Table_Wood.001","primitives":[{"attributes":{"POSITION":102,"NORMAL":103,"TEXCOORD_0":104},"indices":105,"material":25}]},{"name":"Folding_Chair_Wood.001","primitives":[{"attributes":{"POSITION":106,"NORMAL":107,"TEXCOORD_0":108},"indices":109,"material":24}]},{"name":"Plane.006","primitives":[{"attributes":{"POSITION":110,"NORMAL":111,"TEXCOORD_0":112},"indices":113,"material":26}]},{"name":"Cube.005","primitives":[{"attributes":{"POSITION":114,"NORMAL":115,"TEXCOORD_0":116},"indices":117,"material":27}]},{"name":"Cube.020","primitives":[{"attributes":{"POSITION":118,"NORMAL":119,"TEXCOORD_0":120},"indices":121,"material":27}]},{"name":"Cube.001","primitives":[{"attributes":{"POSITION":122,"NORMAL":123,"TEXCOORD_0":124},"indices":125,"material":27}]},{"name":"Rain-darkened scanned asphalt","primitives":[{"attributes":{"POSITION":126,"NORMAL":127,"TEXCOORD_0":128,"TEXCOORD_1":129},"material":0}]},{"name":"Worn damp concrete","primitives":[{"attributes":{"POSITION":130,"NORMAL":131,"TEXCOORD_0":132,"TEXCOORD_1":133},"material":2}]},{"name":"Oxidised charcoal metal","primitives":[{"attributes":{"POSITION":134,"NORMAL":135,"TEXCOORD_0":136,"TEXCOORD_1":137},"material":4}]},{"name":"Weathered brick masonry","primitives":[{"attributes":{"POSITION":138,"NORMAL":139,"TEXCOORD_0":140,"TEXCOORD_1":141},"material":1}]},{"name":"Midnight blue painted steel","primitives":[{"attributes":{"POSITION":142,"NORMAL":143,"TEXCOORD_0":144,"TEXCOORD_1":145},"material":3}]},{"name":"Dark reflective shop glass","primitives":[{"attributes":{"POSITION":146,"NORMAL":147,"TEXCOORD_0":148,"TEXCOORD_1":149},"material":7}]},{"name":"Warm tungsten practical","primitives":[{"attributes":{"POSITION":150,"NORMAL":151,"TEXCOORD_0":152,"TEXCOORD_1":153},"material":12}]},{"name":"Distant occupied windows","primitives":[{"attributes":{"POSITION":154,"NORMAL":155,"TEXCOORD_0":156,"TEXCOORD_1":157},"material":13}]},{"name":"Dark stained wood","primitives":[{"attributes":{"POSITION":158,"NORMAL":159,"TEXCOORD_0":160,"TEXCOORD_1":161},"material":6}]},{"name":"Brushed aluminium","primitives":[{"attributes":{"POSITION":162,"NORMAL":163,"TEXCOORD_0":164,"TEXCOORD_1":165},"material":5}]},{"name":"nocturne luminous lettering","primitives":[{"attributes":{"POSITION":166,"NORMAL":167,"TEXCOORD_0":168,"TEXCOORD_1":169},"material":28}]},{"name":"Ice cyan neon tube","primitives":[{"attributes":{"POSITION":170,"NORMAL":171,"TEXCOORD_0":172,"TEXCOORD_1":173},"material":11}]},{"name":"motel luminous lettering","primitives":[{"attributes":{"POSITION":174,"NORMAL":175,"TEXCOORD_0":176,"TEXCOORD_1":177},"material":29}]},{"name":"ramen luminous lettering","primitives":[{"attributes":{"POSITION":178,"NORMAL":179,"TEXCOORD_0":180,"TEXCOORD_1":181},"material":30}]},{"name":"Hot pink neon tube","primitives":[{"attributes":{"POSITION":182,"NORMAL":183,"TEXCOORD_0":184,"TEXCOORD_1":185},"material":10}]},{"name":"bar luminous lettering","primitives":[{"attributes":{"POSITION":186,"NORMAL":187,"TEXCOORD_0":188,"TEXCOORD_1":189},"material":31}]},{"name":"open luminous lettering","primitives":[{"attributes":{"POSITION":190,"NORMAL":191,"TEXCOORD_0":192,"TEXCOORD_1":193},"material":32}]},{"name":"Worn painted road marking","primitives":[{"attributes":{"POSITION":194,"NORMAL":195,"TEXCOORD_0":196,"TEXCOORD_1":197},"material":9}]}],"nodes":[{"mesh":20,"name":"exterior_aircon_unit_rusted","translation":[0.0,0,0]},{"name":"exterior_aircon_unit placed","children":[0],"translation":[-3.1,3.65,-2],"rotation":[0,0.7071067811865475,0,0.7071067811865476],"scale":[1,1,1]},{"mesh":20,"name":"exterior_aircon_unit_rusted","translation":[0.0,0,0]},{"name":"exterior_aircon_unit placed","children":[2],"translation":[-3.1,3.6,7],"rotation":[0,0.7071067811865475,0,0.7071067811865476],"scale":[1,1,1]},{"mesh":20,"name":"exterior_aircon_unit_rusted","translation":[0.0,0,0]},{"name":"exterior_aircon_unit placed","children":[4],"translation":[-3.1,7,15],"rotation":[0,0.7071067811865475,0,0.7071067811865476],"scale":[1,1,1]},{"mesh":20,"name":"exterior_aircon_unit_rusted","translation":[0.0,0,0]},{"name":"exterior_aircon_unit placed","children":[6],"translation":[3.1,3.65,-2],"rotation":[0,-0.7071067811865475,0,0.7071067811865476],"scale":[1,1,1]},{"mesh":20,"name":"exterior_aircon_unit_rusted","translation":[0.0,0,0]},{"name":"exterior_aircon_unit placed","children":[8],"translation":[3.1,3.6,7],"rotation":[0,-0.7071067811865475,0,0.7071067811865476],"scale":[1,1,1]},{"mesh":20,"name":"exterior_aircon_unit_rusted","translation":[0.0,0,0]},{"name":"exterior_aircon_unit placed","children":[10],"translation":[3.1,7,15],"rotation":[0,-0.7071067811865475,0,0.7071067811865476],"scale":[1,1,1]},{"mesh":21,"name":"outdoor_table_chair_set_01_chair_01","rotation":[0,0.12110016494989395,0,0.9926403164863586],"translation":[0,0,0]},{"mesh":22,"name":"outdoor_table_chair_set_01_table","translation":[0,0,0]},{"mesh":23,"name":"outdoor_table_chair_set_01_chair_02","rotation":[0,0.13368111848831177,0,0.991024374961853],"translation":[0,0,0]},{"name":"outdoor_table_chair_set_01 placed","children":[12,13,14],"translation":[2.47,0.15,5.1],"rotation":[0,0.043619387365336,0,0.9990482215818578],"scale":[0.97,0.97,0.97]},{"mesh":21,"name":"outdoor_table_chair_set_01_chair_01","rotation":[0,0.12110016494989395,0,0.9926403164863586],"translation":[0,0,0]},{"mesh":22,"name":"outdoor_table_chair_set_01_table","translation":[0,0,0]},{"mesh":23,"name":"outdoor_table_chair_set_01_chair_02","rotation":[0,0.13368111848831177,0,0.991024374961853],"translation":[0,0,0]},{"name":"outdoor_table_chair_set_01 placed","children":[16,17,18],"translation":[-2.45,0.15,11.8],"rotation":[0,-0.07845909572784494,0,0.996917333733128],"scale":[0.97,0.97,0.97]},{"mesh":5,"name":"metal_trash_can_rust","translation":[0.0,0,0]},{"mesh":6,"name":"metal_trash_can_rust_handle_left","rotation":[0,0,-0.793353259563446,0.6087616086006165],"translation":[-0.27300161123275757,0.6497123837471008,-0.00019631585746537894]},{"mesh":7,"name":"metal_trash_can_rust_handle_right","rotation":[0,0,-0.32344791293144226,0.9462459683418274],"translation":[0.27300167083740234,0.6497123837471008,-0.00019631585746537894]},{"mesh":8,"name":"metal_trash_can_rust_lid","rotation":[0,0,0.6117722392082214,0.7910341024398804],"translation":[-0.37426555156707764,0.2858511209487915,-7.379671842500102e-06]},{"name":"metal_trash_can placed","children":[20,21,22,23],"translation":[-2.55,0.14,1.4],"rotation":[0,0.13052619222005157,0,0.9914448613738104],"scale":[1,1,1]},{"mesh":1,"name":"metal_trash_can_handle_left","rotation":[0,0,-0.793353259563446,0.6087616086006165],"translation":[-0.27300161123275757,0.6497123837471008,-0.00019631585746537894]},{"mesh":2,"name":"metal_trash_can_lid","rotation":[0,0,0.6117722392082214,0.7910341024398804],"translation":[-0.37426552176475525,0.2858511209487915,-7.379671842500102e-06]},{"mesh":3,"name":"metal_trash_can","translation":[0.0,0,0]},{"mesh":4,"name":"metal_trash_can_handle_right","rotation":[0,0,-0.793353259563446,0.6087616086006165],"translation":[0.29457467794418335,0.6497123837471008,-0.00019631585746537894]},{"name":"metal_trash_can placed","children":[25,26,27,28],"translation":[2.64,0.14,16.7],"rotation":[0,-0.1908089953765448,0,0.981627183447664],"scale":[1,1,1]},{"mesh":14,"name":"fire_hydrant_aged","translation":[1.1920928966180355e-08,0,0]},{"mesh":15,"name":"fire_hydrant_cap_01_aged","translation":[1.1920928966180355e-08,0,0]},{"mesh":16,"name":"fire_hydrant_cap_02_aged","translation":[1.1920928966180355e-08,0,0]},{"mesh":17,"name":"fire_hydrant_cap_03_aged","translation":[1.1920928966180355e-08,0,0]},{"mesh":18,"name":"fire_hydrant_chain_aged","translation":[1.1920928966180355e-08,0,0]},{"name":"fire_hydrant placed","children":[30,31,32,33,34],"translation":[2.47,0.14,-1.9],"rotation":[0,-0.17364817766693033,0,0.984807753012208],"scale":[1,1,1]},{"mesh":0,"name":"utility_box_01_box","translation":[0,0,0]},{"name":"utility_box_01 placed","children":[36],"translation":[-3.08,0.16,3.4],"rotation":[0,0.7071067811865475,0,0.7071067811865476],"scale":[1,1,1]},{"mesh":0,"name":"utility_box_01_box","translation":[0,0,0]},{"name":"utility_box_01 placed","children":[38],"translation":[3.05,0.16,11.3],"rotation":[0,-0.7071067811865475,0,0.7071067811865476],"scale":[1,1,1]},{"mesh":24,"name":"trashbag","translation":[0,0,0]},{"name":"trashbag placed","children":[40],"translation":[-2.59,0.15,2.15],"rotation":[0,0.29237170472273677,0,0.9563047559630354],"scale":[1.1,1.1,1.1]},{"mesh":24,"name":"trashbag","translation":[0,0,0]},{"name":"trashbag placed","children":[42],"translation":[-2.1,0.02,1.9],"rotation":[0,-0.35020738125946743,0,0.9366721892483976],"scale":[1.1,1.1,1.1]},{"mesh":24,"name":"trashbag","translation":[0,0,0]},{"name":"trashbag placed","children":[44],"translation":[2.48,0.15,17.5],"rotation":[0,-0.043619387365336,0,0.9990482215818578],"scale":[1.1,1.1,1.1]},{"mesh":24,"name":"trashbag","translation":[0,0,0]},{"name":"trashbag placed","children":[46],"translation":[2.7,0.15,18],"rotation":[0,0.27563735581699916,0,0.9612616959383189],"scale":[1.1,1.1,1.1]},{"mesh":25,"name":"wooden_crate_01_lid","translation":[0,0,0]},{"mesh":26,"name":"wooden_crate_01","translation":[0,0,0]},{"mesh":27,"name":"wooden_crate_01_latch","translation":[0,0,0]},{"name":"wooden_crate_01 placed","children":[48,49,50],"translation":[2.55,0.15,8],"rotation":[0,-0.03489949670250097,0,0.9993908270190958],"scale":[1,1,1]},{"mesh":25,"name":"wooden_crate_01_lid","translation":[0,0,0]},{"mesh":26,"name":"wooden_crate_01","translation":[0,0,0]},{"mesh":27,"name":"wooden_crate_01_latch","translation":[0,0,0]},{"name":"wooden_crate_01 placed","children":[52,53,54],"translation":[2.53,0.49,8],"rotation":[0,0.07845909572784494,0,0.996917333733128],"scale":[1,1,1]},{"mesh":25,"name":"wooden_crate_01_lid","translation":[0,0,0]},{"mesh":26,"name":"wooden_crate_01","translation":[0,0,0]},{"mesh":27,"name":"wooden_crate_01_latch","translation":[0,0,0]},{"name":"wooden_crate_01 placed","children":[56,57,58],"translation":[-2.5,0.15,14.7],"rotation":[0,0.14780941112961063,0,0.9890158633619168],"scale":[1,1,1]},{"mesh":28,"name":"Rain-darkened scanned asphalt"},{"mesh":29,"name":"Worn damp concrete"},{"mesh":30,"name":"Oxidised charcoal metal"},{"mesh":31,"name":"Weathered brick masonry"},{"mesh":32,"name":"Midnight blue painted steel"},{"mesh":33,"name":"Dark reflective shop glass"},{"mesh":34,"name":"Warm tungsten practical"},{"mesh":35,"name":"Distant occupied windows"},{"mesh":36,"name":"Dark stained wood"},{"mesh":37,"name":"Brushed aluminium"},{"mesh":38,"name":"nocturne luminous lettering"},{"mesh":39,"name":"Ice cyan neon tube"},{"mesh":40,"name":"motel luminous lettering"},{"mesh":41,"name":"ramen luminous lettering"},{"mesh":42,"name":"Hot pink neon tube"},{"mesh":43,"name":"bar luminous lettering"},{"mesh":44,"name":"open luminous lettering"},{"mesh":45,"name":"Worn painted road marking"}]}
